<?xml version="1.0" standalone="no"?>
<!DOCTYPE svg PUBLIC "-//W3C//DTD SVG 20010904//EN"
 "http://www.w3.org/TR/2001/REC-SVG-20010904/DTD/svg10.dtd">
<svg version="1.0" xmlns="http://www.w3.org/2000/svg"
 width="1419.000000pt" height="1418.000000pt" viewBox="0 0 1419.000000 1418.000000"
 preserveAspectRatio="xMidYMid meet">

<g transform="translate(0.000000,1418.000000) scale(0.100000,-0.100000)"
fill="#000000" stroke="none">
<path d="M6825 14169 c-476 -16 -968 -86 -1442 -204 -2010 -498 -3706 -1861
-4629 -3720 -190 -383 -323 -714 -434 -1079 -681 -2248 -221 -4667 1232 -6489
1002 -1254 2388 -2131 3943 -2491 731 -170 1514 -222 2275 -150 1977 185 3788
1200 4991 2796 752 999 1231 2192 1373 3423 36 311 41 416 41 840 -1 472 -11
627 -66 1009 -382 2665 -2255 4889 -4819 5724 -599 195 -1252 315 -1840 337
-303 11 -411 12 -625 4z m90 -2291 c-12 -34 -845 -3393 -843 -3398 3 -6 452
90 1028 221 333 75 900 216 909 225 3 3 -160 668 -362 1477 -202 810 -367
1475 -367 1480 0 4 285 7 633 7 l634 0 423 -1102 c232 -607 445 -1160 472
-1229 l49 -127 94 52 c220 120 410 284 522 453 34 50 64 101 68 112 11 35 22
24 38 -36 24 -89 30 -172 18 -254 -59 -387 -339 -642 -966 -882 -711 -271
-1584 -507 -2800 -757 -625 -128 -1174 -265 -1690 -420 -477 -144 -852 -310
-1072 -476 -47 -35 -86 -64 -89 -64 -9 0 -3 89 11 154 40 188 175 360 401 512
73 48 83 60 101 106 12 29 352 917 758 1973 405 1056 743 1935 750 1953 l14
32 635 0 c504 0 634 -3 631 -12z m3698 -2425 c61 -219 43 -448 -52 -658 -85
-188 -281 -408 -481 -541 -278 -185 -685 -349 -1250 -503 -414 -113 -2139
-541 -2945 -731 -1614 -380 -2276 -639 -2709 -1061 -50 -49 -92 -89 -92 -89
-1 0 -7 28 -13 63 -82 470 281 887 1029 1185 520 206 914 312 2406 647 2018
453 2726 653 3233 910 248 126 408 240 563 404 98 102 192 237 246 352 20 44
40 79 43 79 4 0 14 -26 22 -57z m406 -807 c96 -315 -1 -719 -243 -1007 -165
-197 -435 -371 -801 -514 -154 -61 -853 -292 -1190 -394 -475 -144 -1778 -494
-3132 -840 -660 -169 -904 -238 -1250 -355 -579 -196 -977 -399 -1313 -670
-111 -89 -296 -278 -379 -386 -40 -52 -77 -96 -81 -98 -13 -5 -23 170 -15 260
36 418 303 804 780 1130 295 202 650 368 1120 524 348 115 664 199 1350 358
1477 343 3004 741 3574 932 438 146 756 302 1008 490 195 147 381 361 483 555
29 56 56 97 60 92 5 -4 18 -39 29 -77z m138 -3558 c398 -1036 725 -1890 728
-1899 5 -14 -23 -10 -182 21 -641 127 -1394 239 -2112 315 -128 13 -235 26
-236 27 -11 14 -685 2762 -679 2768 5 4 86 30 180 59 301 90 1034 337 1174
395 74 31 194 88 265 125 72 38 132 70 135 70 3 1 330 -846 727 -1881z m-6083
-594 c-128 -515 -236 -939 -238 -942 -3 -2 -108 -15 -233 -28 -672 -69 -1347
-168 -2016 -295 -148 -28 -271 -48 -274 -45 -3 3 63 187 148 408 143 374 158
408 212 480 316 422 785 742 1458 998 185 71 555 190 799 259 118 33 247 69
285 80 39 11 75 20 81 20 6 1 -90 -402 -222 -935z"/>
</g>
</svg>
